<svg width="512" height="512" xmlns="http://www.w3.org/2000/svg">

 <g>
  <title>background</title>
  <rect fill="none" id="canvas_background" height="402" width="582" y="-1" x="-1"/>
 </g>
 <g>
  <title>Layer 1</title>
  <g id="svg_1">
   <g id="svg_2">
    <path fill="#ff5b5b" id="svg_3" d="m394.666992,449.963013l0,-80.575989c0,-27.669006 -11.946991,-54.015991 -32.789001,-72.256012l-47.018982,-41.131012l47.019012,-41.130997c20.842987,-18.240005 32.789001,-44.587006 32.789001,-72.255997l0,-80.576008c12.393982,-4.416 21.332977,-16.148998 21.332977,-30.036999c0,-17.643 -14.356995,-32 -32,-32l-256,0c-17.642998,0 -32,14.357 -32,32c0,13.888 8.939003,25.620998 21.333,30.036999l0,80.576008c0,27.668991 11.946999,54.015991 32.788994,72.255981l47.019012,41.131012l-47.018997,41.131012c-20.843002,18.23999 -32.789009,44.586975 -32.789009,72.255981l0,80.575989c-12.393997,4.416016 -21.333,16.149017 -21.333,30.037018c0,17.643005 14.357002,32 32,32l256,0c17.643005,0 32,-14.356995 32,-32c0,-13.888 -8.938995,-25.621002 -21.333008,-30.036987zm-21.333984,-1.963013l-234.666,0l0,-78.613007c0,-21.524994 9.30101,-42.005005 25.492996,-56.191986l56.192001,-49.173004c2.325012,-2.027008 3.64801,-4.949005 3.64801,-8.020996s-1.322998,-5.99501 -3.64801,-8.021011l-56.192001,-49.172989c-16.191986,-14.187012 -25.492996,-34.667007 -25.492996,-56.192001l0,-78.615005l234.667007,0l0,78.613007c0,21.524994 -9.300995,42.00499 -25.493011,56.191986l-56.191986,49.173004c-2.326019,2.027008 -3.649017,4.949997 -3.649017,8.022003s1.322998,5.994995 3.64801,8.020996l56.191986,49.173004c16.213013,14.187012 25.493011,34.666992 25.493011,56.191986l0,78.614014z"/>
   </g>
  </g>
  <g id="svg_4">
   <g id="svg_5">
    <path fill="#ff5b5b" id="svg_6" d="m349.674988,409.343994l-85.333008,-106.666992c-4.052979,-5.056 -12.607986,-5.056 -16.660995,0l-85.332993,106.666992c-2.559998,3.199982 -3.050995,7.595001 -1.279999,11.285004c1.770996,3.690979 5.503998,6.036987 9.599991,6.036987l170.667007,0c4.096008,0 7.82901,-2.346985 9.621002,-6.036987c1.769012,-3.690002 1.278992,-8.084991 -1.281006,-11.285004z"/>
   </g>
  </g>
  <g id="svg_7">
   <g id="svg_8">
    <path fill="#ff5b5b" id="svg_9" d="m308.52301,177.259003c-1.643005,-3.988998 -5.546997,-6.591995 -9.855988,-6.591995l-85.333008,0c-4.309006,0 -8.212997,2.602997 -9.856003,6.591995c-1.664001,3.988998 -0.747009,8.554993 2.304001,11.626999l42.666992,42.666992c2.091003,2.069 4.820999,3.115005 7.552002,3.115005s5.460999,-1.044998 7.552002,-3.115005l42.666992,-42.666992c3.049011,-3.050995 3.96701,-7.638 2.303009,-11.626999z"/>
   </g>
  </g>
  <g id="svg_10"/>
  <g id="svg_11"/>
  <g id="svg_12"/>
  <g id="svg_13"/>
  <g id="svg_14"/>
  <g id="svg_15"/>
  <g id="svg_16"/>
  <g id="svg_17"/>
  <g id="svg_18"/>
  <g id="svg_19"/>
  <g id="svg_20"/>
  <g id="svg_21"/>
  <g id="svg_22"/>
  <g id="svg_23"/>
  <g id="svg_24"/>
 </g>
</svg>